# ProBuilder 4.2.3
# https://unity3d.com/unity/features/worldbuilding/probuilder
# 2/14/2021 6:24:05 PM

mtllib ./NewMedal1.mtl
o NewMedal1

g Cylinder
v 0.0008518547 0 0.006470476
v 0.0008518547 0.01 0.006470476
v 0.003349366 0 0.0125
v 0.003349366 0.01 0.0125
v 0.00732233 0 0.01767767
v 0.00732233 0.01 0.01767767
v 0.0125 0 0.02165064
v 0.0125 0.01 0.02165064
v 0.01852952 0 0.02414815
v 0.01852952 0.01 0.02414815
v 0.025 0 0.025
v 0.025 0.01 0.025
v 0.03147048 0 0.02414815
v 0.03147048 0.01 0.02414815
v 0.0375 0 0.02165063
v 0.0375 0.01 0.02165063
v 0.04267767 0 0.01767767
v 0.04267767 0.01 0.01767767
v 0.04665063 0 0.0125
v 0.04665063 0.01 0.0125
v 0.04914815 0 0.006470479
v 0.04914815 0.01 0.006470479
v 0.05 0 -2.18557E-09
v 0.05 0.01 -2.18557E-09
v 0.04914815 0 -0.006470477
v 0.04914815 0.01 -0.006470477
v 0.04665063 0 -0.0125
v 0.04665063 0.01 -0.0125
v 0.04267767 0 -0.01767767
v 0.04267767 0.01 -0.01767767
v 0.0375 0 -0.02165064
v 0.0375 0.01 -0.02165064
v 0.03147047 0 -0.02414815
v 0.03147047 0.01 -0.02414815
v 0.025 0 -0.025
v 0.025 0.01 -0.025
v 0.01852953 0 -0.02414815
v 0.01852953 0.01 -0.02414815
v 0.0125 0 -0.02165064
v 0.0125 0.01 -0.02165064
v 0.007322334 0 -0.01767767
v 0.007322334 0.01 -0.01767767
v 0.003349368 0 -0.0125
v 0.003349368 0.01 -0.0125
v 0.0008518565 0 -0.006470482
v 0.0008518565 0.01 -0.006470482
v 0 0 0
v 0 0.01 0
v 0.025 0 0
v 0.025 0.01 0

vt 0.0008518547 0.006470476
vt 0.003349366 0.0125
vt 0.00732233 0.01767767
vt 0.0125 0.02165064
vt 0.01852952 0.02414815
vt 0.025 0.025
vt 0.03147048 0.02414815
vt 0.0375 0.02165063
vt 0.04267767 0.01767767
vt 0.04665063 0.0125
vt 0.04914815 0.006470479
vt 0.05 -2.18557E-09
vt 0.04914815 -0.006470477
vt 0.04665063 -0.0125
vt 0.04267767 -0.01767767
vt 0.0375 -0.02165064
vt 0.03147047 -0.02414815
vt 0.025 -0.025
vt 0.01852953 -0.02414815
vt 0.0125 -0.02165064
vt 0.007322334 -0.01767767
vt 0.003349368 -0.0125
vt 0.0008518565 -0.006470482
vt 0 0
vt 0.01650652 0.6294096
vt 0.9830997 0.6294096
vt 0.06645674 0.75
vt 0.9331495 0.75
vt 0.145916 0.8535534
vt 0.8536903 0.8535534
vt 0.2494694 0.9330127
vt 0.7501368 0.9330127
vt 0.6295463 0.9829629
vt 0.3700599 0.9829629
vt 0.4994694 0.5
vt 0.4994695 1
vt 0.628879 0.9829629
vt 0.5001368 1
vt 0.5001369 0.5
vt 0.3707273 0.9829629
vt 0.7494694 0.9330127
vt 0.8530228 0.8535534
vt 0.2501368 0.9330127
vt 0.1465834 0.8535534
vt 0.9324821 0.75
vt 0.06712419 0.75
vt 0.9824323 0.6294096
vt 0.01717395 0.6294096
vt 0.9994694 0.5
vt 0.0001368523 0.5
vt 0.9824323 0.3705904
vt 0.01717395 0.3705904
vt 0.9324821 0.25
vt 0.06712419 0.25
vt 0.8530228 0.1464466
vt 0.1465834 0.1464466
vt 0.7494694 0.06698728
vt 0.2501369 0.06698728
vt 0.6288789 0.01703706
vt 0.3707274 0.01703706
vt 0.4994694 0
vt 0.5001369 0
vt 0.3700599 0.01703709
vt 0.6295463 0.01703709
vt 0.2494695 0.06698728
vt 0.7501368 0.06698728
vt 0.1459161 0.1464466
vt 0.8536901 0.1464466
vt 0.06645676 0.2499999
vt 0.9331495 0.2499999
vt 0.01650655 0.3705904
vt 0.9830997 0.3705904
vt -0.0005305707 0.5
vt 1.000137 0.5

vn -0.9763442 0 0.2162221
vn -0.9536499 0 0.3009183
vn -0.8871137 0 0.461551
vn -0.8432718 0 0.5374873
vn -0.7374279 0 0.6754258
vn -0.6754259 0 0.7374278
vn -0.5374874 0 0.8432718
vn -0.4615509 0 0.8871137
vn -0.3009182 0 0.9536499
vn -0.216222 0 0.9763442
vn -0.04384194 0 0.9990385
vn 0.04384203 0 0.9990385
vn 0.2162222 0 0.9763442
vn 0.3009183 0 0.9536499
vn 0.461551 0 0.8871137
vn 0.5374874 0 0.8432718
vn 0.6754259 0 0.7374278
vn 0.7374279 0 0.6754258
vn 0.8432717 0 0.5374874
vn 0.8871136 0 0.4615511
vn 0.9536498 0 0.3009185
vn 0.9763442 0 0.2162222
vn 0.9990385 0 0.04384191
vn 0.9990385 0 -0.04384204
vn 0.9763442 0 -0.2162223
vn 0.9536498 0 -0.3009185
vn 0.8871136 0 -0.4615511
vn 0.8432718 0 -0.5374874
vn 0.7374279 0 -0.6754258
vn 0.675426 0 -0.7374278
vn 0.5374875 0 -0.8432717
vn 0.461551 0 -0.8871137
vn 0.3009183 0 -0.9536499
vn 0.216222 0 -0.9763442
vn 0.04384184 0 -0.9990385
vn -0.04384207 0 -0.9990385
vn -0.2162221 0 -0.9763442
vn -0.3009182 0 -0.9536499
vn -0.4615509 0 -0.8871137
vn -0.5374874 0 -0.8432718
vn -0.6754259 0 -0.7374279
vn -0.7374278 0 -0.675426
vn -0.8432716 0 -0.5374877
vn -0.8871136 0 -0.4615511
vn -0.9536499 0 -0.3009184
vn -0.9763442 0 -0.2162223
vn -0.9990385 0 -0.0438421
vn -0.9990385 0 0.04384192
vn 0 -1 0
vn 0 1 0

usemtl Medal1Material
f 14/40/50 50/39/50 12/38/50
f 18/44/50 50/39/50 16/43/50
f 20/46/50 50/39/50 18/44/50
f 16/43/50 50/39/50 14/40/50
f 22/48/50 50/39/50 20/46/50
f 24/50/50 50/39/50 22/48/50
f 26/52/50 50/39/50 24/50/50
f 28/54/50 50/39/50 26/52/50
f 30/56/50 50/39/50 28/54/50
f 32/58/50 50/39/50 30/56/50
f 34/60/50 50/39/50 32/58/50
f 36/62/50 50/39/50 34/60/50
f 38/64/50 50/39/50 36/62/50
f 40/66/50 50/39/50 38/64/50
f 42/68/50 50/39/50 40/66/50
f 44/70/50 50/39/50 42/68/50
f 46/72/50 50/39/50 44/70/50
f 48/74/50 50/39/50 46/72/50
f 2/26/50 50/39/50 48/74/50
f 4/28/50 50/39/50 2/26/50
f 6/30/50 50/39/50 4/28/50
f 8/32/50 50/39/50 6/30/50
f 10/33/50 50/39/50 8/32/50
f 12/38/50 50/39/50 10/33/50
f 9/34/49 49/35/49 11/36/49
f 11/36/49 49/35/49 13/37/49
f 13/37/49 49/35/49 15/41/49
f 15/41/49 49/35/49 17/42/49
f 17/42/49 49/35/49 19/45/49
f 19/45/49 49/35/49 21/47/49
f 21/47/49 49/35/49 23/49/49
f 23/49/49 49/35/49 25/51/49
f 25/51/49 49/35/49 27/53/49
f 27/53/49 49/35/49 29/55/49
f 29/55/49 49/35/49 31/57/49
f 31/57/49 49/35/49 33/59/49
f 33/59/49 49/35/49 35/61/49
f 35/61/49 49/35/49 37/63/49
f 37/63/49 49/35/49 39/65/49
f 39/65/49 49/35/49 41/67/49
f 41/67/49 49/35/49 43/69/49
f 43/69/49 49/35/49 45/71/49
f 45/71/49 49/35/49 47/73/49
f 47/73/49 49/35/49 1/25/49
f 1/25/49 49/35/49 3/27/49
f 3/27/49 49/35/49 5/29/49
f 5/29/49 49/35/49 7/31/49
f 7/31/49 49/35/49 9/34/49

usemtl MedalSideMaterial
f 13/7/13 12/6/12 11/6/11
f 13/7/13 14/7/14 12/6/12
f 15/8/15 14/7/14 13/7/13
f 15/8/15 16/8/16 14/7/14
f 17/9/17 16/8/16 15/8/15
f 17/9/17 18/9/18 16/8/16
f 19/10/19 18/9/18 17/9/17
f 19/10/19 20/10/20 18/9/18
f 21/11/21 20/10/20 19/10/19
f 21/11/21 22/11/22 20/10/20
f 23/12/23 22/11/22 21/11/21
f 23/12/23 24/12/24 22/11/22
f 25/13/25 24/12/24 23/12/23
f 25/13/25 26/13/26 24/12/24
f 27/14/27 26/13/26 25/13/25
f 27/14/27 28/14/28 26/13/26
f 29/15/29 28/14/28 27/14/27
f 29/15/29 30/15/30 28/14/28
f 31/16/31 30/15/30 29/15/29
f 31/16/31 32/16/32 30/15/30
f 33/17/33 32/16/32 31/16/31
f 33/17/33 34/17/34 32/16/32
f 35/18/35 34/17/34 33/17/33
f 35/18/35 36/18/36 34/17/34
f 37/19/37 36/18/36 35/18/35
f 37/19/37 38/19/38 36/18/36
f 39/20/39 38/19/38 37/19/37
f 39/20/39 40/20/40 38/19/38
f 41/21/41 40/20/40 39/20/39
f 41/21/41 42/21/42 40/20/40
f 43/22/43 42/21/42 41/21/41
f 43/22/43 44/22/44 42/21/42
f 45/23/45 44/22/44 43/22/43
f 45/23/45 46/23/46 44/22/44
f 47/24/47 46/23/46 45/23/45
f 47/24/47 48/24/48 46/23/46
f 3/2/3 2/1/2 1/1/1
f 3/2/3 4/2/4 2/1/2
f 5/3/5 4/2/4 3/2/3
f 5/3/5 6/3/6 4/2/4
f 7/4/7 6/3/6 5/3/5
f 7/4/7 8/4/8 6/3/6
f 1/1/1 48/24/48 47/24/47
f 1/1/1 2/1/2 48/24/48
f 11/6/11 10/5/10 9/5/9
f 11/6/11 12/6/12 10/5/10
f 9/5/9 8/4/8 7/4/7
f 9/5/9 10/5/10 8/4/8

