mtllib 1_slot.mtl
g 1
v 32.928711 25.757965 58.684967
v 7.170715 0.000000 58.684967
v 30.970459 260.761841 58.684967
v 7.170715 225.788391 58.684967
v -58.684998 199.809021 58.684967
v -35.955688 233.206726 58.684967
v -58.684998 248.186707 58.684967
v 55.104736 297.017151 58.684967
v 55.715088 294.047180 58.684967
v 58.684937 297.017151 58.684967
v 58.684937 0.000000 58.684967
v 32.927856 259.471741 58.684967
v 7.170715 0.000000 58.684967
v 7.170715 225.788391 58.684967
v 7.170715 0.000000 -58.684967
v 7.170715 225.788391 -58.684967
v 7.170715 225.788391 58.684967
v -58.684998 199.809021 58.684967
v 7.170715 225.788391 -58.684967
v -58.684998 199.809021 -58.684967
v -58.684998 199.809021 58.684967
v -58.684998 248.186707 58.684967
v -58.684998 199.809021 -58.684967
v -58.684998 248.186707 -58.684967
v -58.684998 248.186707 58.684967
v 55.104736 297.017151 58.684967
v 58.684937 297.017151 58.684967
v -58.684998 248.186707 -58.684967
v 55.104736 297.017151 -58.684967
v 58.684937 297.017151 -58.684967
v 58.684937 297.017151 58.684967
v 58.684937 0.000000 58.684967
v 58.684937 297.017151 -58.684967
v 58.684937 0.000000 -58.684967
v 58.684937 0.000000 58.684967
v 7.170715 0.000000 58.684967
v 58.684937 0.000000 -58.684967
v 7.170715 0.000000 -58.684967
v 32.928711 25.757965 -58.684967
v 7.170715 0.000000 -58.684967
v 30.970459 260.761841 -58.684967
v 7.170715 225.788391 -58.684967
v -58.684998 199.809021 -58.684967
v -35.955688 233.206726 -58.684967
v -58.684998 248.186707 -58.684967
v 55.104736 297.017151 -58.684967
v 55.715088 294.047180 -58.684967
v 58.684937 297.017151 -58.684967
v 58.684937 0.000000 -58.684967
v 32.927856 259.471741 -58.684967
vt 0.780555 0.086722
vt 0.561095 0.000000
vt 0.763871 0.877935
vt 0.561095 0.760187
vt 0.000000 0.672719
vt 0.193655 0.785163
vt 0.000000 0.835597
vt 0.969496 1.000000
vt 0.974697 0.990001
vt 1.000000 1.000000
vt 1.000000 0.000000
vt 0.780548 0.873592
vt 1.000000 1.000000
vt 0.724949 1.000000
vt 1.000000 0.000000
vt 0.724949 0.000000
vt 0.724949 1.000000
vt 0.638708 1.000000
vt 0.724949 0.000000
vt 0.638708 0.000000
vt 0.638708 1.000000
vt 0.579776 1.000000
vt 0.638708 0.000000
vt 0.579776 0.000000
vt 0.579776 1.000000
vt 0.428935 1.000000
vt 0.424574 1.000000
vt 0.579776 0.000000
vt 0.428935 0.000000
vt 0.424574 0.000000
vt 0.424574 1.000000
vt 0.062754 1.000000
vt 0.424574 0.000000
vt 0.062754 0.000000
vt 0.062754 1.000000
vt 0.000000 1.000000
vt 0.062754 0.000000
vt 0.000000 0.000000
vt 0.780555 0.086722
vt 0.561095 0.000000
vt 0.763871 0.877935
vt 0.561095 0.760187
vt 0.000000 0.672719
vt 0.193655 0.785163
vt 0.000000 0.835597
vt 0.969496 1.000000
vt 0.974697 0.990001
vt 1.000000 1.000000
vt 1.000000 0.000000
vt 0.780548 0.873592
vn 0.000000 0.000000 1.000000
vn 0.000000 0.000000 1.000000
vn 0.000000 0.000000 0.998312
vn 0.000000 0.000000 0.998312
vn 0.000000 0.000000 1.000000
vn 0.000000 0.000000 1.000000
vn 0.000000 0.000000 1.000000
vn 0.000000 0.000000 1.000000
vn 0.000000 0.000000 1.000000
vn 0.000000 0.000000 1.000000
vn 0.000000 0.000000 1.000000
vn 0.000000 0.000000 0.998312
vn -1.000000 0.000000 0.000000
vn -1.000000 0.000000 0.000000
vn -1.000000 0.000000 0.000000
vn -1.000000 0.000000 0.000000
vn 0.366348 -0.928664 0.000000
vn 0.366348 -0.928664 0.000000
vn 0.366348 -0.928664 0.000000
vn 0.366348 -0.928664 0.000000
vn -1.000000 0.000000 0.000000
vn -1.000000 0.000000 0.000000
vn -1.000000 0.000000 0.000000
vn -1.000000 0.000000 0.000000
vn -0.393686 0.917409 0.000000
vn -0.200957 0.977877 0.000000
vn 0.000000 1.000000 0.000000
vn -0.393686 0.917409 0.000000
vn -0.200957 0.977877 0.000000
vn 0.000000 1.000000 0.000000
vn 1.000000 0.000000 0.000000
vn 1.000000 0.000000 0.000000
vn 1.000000 0.000000 0.000000
vn 1.000000 0.000000 0.000000
vn 0.000000 -1.000000 0.000000
vn 0.000000 -1.000000 0.000000
vn 0.000000 -1.000000 0.000000
vn 0.000000 -1.000000 0.000000
vn 0.000000 0.000000 -1.000000
vn 0.000000 0.000000 -1.000000
vn 0.000000 0.000000 -0.998312
vn 0.000000 0.000000 -0.998312
vn 0.000000 0.000000 -1.000000
vn 0.000000 0.000000 -1.000000
vn 0.000000 0.000000 -1.000000
vn 0.000000 0.000000 -1.000000
vn 0.000000 0.000000 -1.000000
vn 0.000000 0.000000 -1.000000
vn 0.000000 0.000000 -1.000000
vn 0.000000 0.000000 -0.998312
usemtl 1 フロント膨張マテリアル
f 3/3/3 4/4/4 12/12/12
f 5/5/5 4/4/4 6/6/6
f 7/7/7 5/5/5 6/6/6
f 8/8/8 7/7/7 9/9/9
f 10/10/10 8/8/8 9/9/9
f 1/1/1 11/11/11 12/12/12
f 2/2/2 11/11/11 1/1/1
f 12/12/12 4/4/4 1/1/1
f 2/2/2 1/1/1 4/4/4
f 3/3/3 6/6/6 4/4/4
f 9/9/9 7/7/7 3/3/3
f 12/12/12 9/9/9 3/3/3
f 6/6/6 3/3/3 7/7/7
f 12/12/12 11/11/11 9/9/9
f 10/10/10 9/9/9 11/11/11
usemtl 1 フロントベベルマテリアル
f 1/1/1 1/1/1 1/1/1
usemtl 1 押し出しマテリアル
f 15/15/15 13/13/13 14/14/14
f 15/15/15 14/14/14 16/16/16
f 19/19/19 17/17/17 18/18/18
f 19/19/19 18/18/18 20/20/20
f 23/23/23 21/21/21 22/22/22
f 23/23/23 22/22/22 24/24/24
f 28/28/28 25/25/25 26/26/26
f 28/28/28 26/26/26 29/29/29
f 29/29/29 26/26/26 27/27/27
f 29/29/29 27/27/27 30/30/30
f 33/33/33 31/31/31 32/32/32
f 33/33/33 32/32/32 34/34/34
f 37/37/37 35/35/35 36/36/36
f 37/37/37 36/36/36 38/38/38
usemtl 1 バックベベルマテリアル
f 1/1/1 1/1/1 1/1/1
usemtl 1 バック膨張マテリアル
f 42/42/42 41/41/41 50/50/50
f 42/42/42 43/43/43 44/44/44
f 43/43/43 45/45/45 44/44/44
f 45/45/45 46/46/46 47/47/47
f 46/46/46 48/48/48 47/47/47
f 49/49/49 39/39/39 50/50/50
f 49/49/49 40/40/40 39/39/39
f 42/42/42 50/50/50 39/39/39
f 39/39/39 40/40/40 42/42/42
f 44/44/44 41/41/41 42/42/42
f 45/45/45 47/47/47 41/41/41
f 47/47/47 50/50/50 41/41/41
f 41/41/41 44/44/44 45/45/45
f 49/49/49 50/50/50 47/47/47
f 47/47/47 48/48/48 49/49/49
