mtllib 4_slot.mtl
g 4
v 50.175842 26.206543 120.285004
v 23.970581 0.000000 120.285004
v 50.176880 83.994781 120.285004
v 23.970581 57.789001 120.285004
v -120.285034 57.791718 120.285004
v -109.952759 68.123810 120.285004
v -120.285034 71.676025 120.285004
v 52.640991 293.433289 120.285004
v 60.430359 277.481506 120.285004
v 76.381165 293.433289 120.285004
v 76.381165 104.828430 120.285004
v 120.284973 104.825714 120.285004
v 96.766602 81.310089 120.285004
v 120.284973 57.791718 120.285004
v 52.865845 81.310791 120.285004
v 76.383850 57.791718 120.285004
v 76.381165 0.000000 120.285004
v 16.601807 213.398682 120.285004
v 23.965149 189.054016 120.285004
v -41.890503 104.830231 120.285004
v 23.967896 104.825714 120.285004
v 23.970581 189.052185 120.285004
v -84.326843 84.144653 120.285004
v 47.484924 81.306335 120.285004
v -82.943665 81.311798 120.285004
v 50.176147 207.973083 120.285004
v 50.175842 78.624756 120.285004
v 50.176147 83.995514 120.285004
v 50.177673 78.622925 120.285004
v 40.934937 220.771851 120.285004
v 23.970581 0.000000 120.285004
v 23.970581 57.789001 120.285004
v 23.970581 0.000000 -120.285004
v 23.970581 57.789001 -120.285004
v 23.970581 57.789001 120.285004
v -120.285034 57.791718 120.285004
v 23.970581 57.789001 -120.285004
v -120.285034 57.791718 -120.285004
v -120.285034 57.791718 120.285004
v -120.285034 71.676025 120.285004
v -120.285034 57.791718 -120.285004
v -120.285034 71.676025 -120.285004
v -120.285034 71.676025 120.285004
v 52.640991 293.433289 120.285004
v -120.285034 71.676025 -120.285004
v 52.640991 293.433289 -120.285004
v 52.640991 293.433289 120.285004
v 76.381165 293.433289 120.285004
v 52.640991 293.433289 -120.285004
v 76.381165 293.433289 -120.285004
v 76.381165 293.433289 120.285004
v 76.381165 104.828430 120.285004
v 76.381165 293.433289 -120.285004
v 76.381165 104.828430 -120.285004
v 76.381165 104.828430 120.285004
v 120.284973 104.825714 120.285004
v 76.381165 104.828430 -120.285004
v 120.284973 104.825714 -120.285004
v 120.284973 104.825714 120.285004
v 120.284973 57.791718 120.285004
v 120.284973 104.825714 -120.285004
v 120.284973 57.791718 -120.285004
v 120.284973 57.791718 120.285004
v 76.383850 57.791718 120.285004
v 120.284973 57.791718 -120.285004
v 76.383850 57.791718 -120.285004
v 76.383850 57.791718 120.285004
v 76.381165 0.000000 120.285004
v 76.383850 57.791718 -120.285004
v 76.381165 0.000000 -120.285004
v 76.381165 0.000000 120.285004
v 23.970581 0.000000 120.285004
v 76.381165 0.000000 -120.285004
v 23.970581 0.000000 -120.285004
v 23.965149 189.054016 120.285004
v -41.890503 104.830231 120.285004
v 23.965149 189.054016 -120.285004
v -41.890503 104.830231 -120.285004
v -41.890503 104.830231 120.285004
v 23.967896 104.825714 120.285004
v -41.890503 104.830231 -120.285004
v 23.967896 104.825714 -120.285004
v 23.967896 104.825714 120.285004
v 23.970581 189.052185 120.285004
v 23.967896 104.825714 -120.285004
v 23.970581 189.052185 -120.285004
v 23.970581 189.052185 120.285004
v 23.965149 189.054016 120.285004
v 23.970581 189.052185 -120.285004
v 23.965149 189.054016 -120.285004
v 50.175842 26.206543 -120.285004
v 23.970581 0.000000 -120.285004
v 50.176880 83.994781 -120.285004
v 23.970581 57.789001 -120.285004
v -120.285034 57.791718 -120.285004
v -109.952759 68.123810 -120.285004
v -120.285034 71.676025 -120.285004
v 52.640991 293.433289 -120.285004
v 60.430359 277.481506 -120.285004
v 76.381165 293.433289 -120.285004
v 76.381165 104.828430 -120.285004
v 120.284973 104.825714 -120.285004
v 96.766602 81.310089 -120.285004
v 120.284973 57.791718 -120.285004
v 52.865845 81.310791 -120.285004
v 76.383850 57.791718 -120.285004
v 76.381165 0.000000 -120.285004
v 16.601807 213.398682 -120.285004
v 23.965149 189.054016 -120.285004
v -41.890503 104.830231 -120.285004
v 23.967896 104.825714 -120.285004
v 23.970581 189.052185 -120.285004
v -84.326843 84.144653 -120.285004
v 47.484924 81.306335 -120.285004
v -82.943665 81.311798 -120.285004
v 50.176147 207.973083 -120.285004
v 50.175842 78.624756 -120.285004
v 50.176147 83.995514 -120.285004
v 50.177673 78.622925 -120.285004
v 40.934937 220.771851 -120.285004
vt 0.708571 0.089310
vt 0.599641 0.000000
vt 0.708575 0.286248
vt 0.599641 0.196941
vt 0.000000 0.196950
vt 0.042949 0.232161
vt 0.000000 0.244267
vt 0.718818 1.000000
vt 0.751197 0.945637
vt 0.817501 1.000000
vt 0.817501 0.357248
vt 1.000000 0.357239
vt 0.902239 0.277099
vt 1.000000 0.196950
vt 0.719753 0.277101
vt 0.817512 0.196950
vt 0.817501 0.000000
vt 0.569010 0.727248
vt 0.599618 0.644283
vt 0.325870 0.357254
vt 0.599630 0.357239
vt 0.599641 0.644277
vt 0.149471 0.286759
vt 0.697385 0.277086
vt 0.155220 0.277105
vt 0.708572 0.708758
vt 0.708571 0.267948
vt 0.708572 0.286251
vt 0.708578 0.267941
vt 0.670158 0.752375
vt 1.000000 1.000000
vt 0.952301 1.000000
vt 1.000000 0.000000
vt 0.952301 0.000000
vt 0.952301 1.000000
vt 0.833232 1.000000
vt 0.952301 0.000000
vt 0.833232 0.000000
vt 0.833232 1.000000
vt 0.821772 1.000000
vt 0.833232 0.000000
vt 0.821772 0.000000
vt 0.821772 1.000000
vt 0.589660 1.000000
vt 0.821772 0.000000
vt 0.589660 0.000000
vt 0.589660 1.000000
vt 0.570064 1.000000
vt 0.589660 0.000000
vt 0.570064 0.000000
vt 0.570064 1.000000
vt 0.414390 1.000000
vt 0.570064 0.000000
vt 0.414390 0.000000
vt 0.414390 1.000000
vt 0.378151 1.000000
vt 0.414390 0.000000
vt 0.378151 0.000000
vt 0.378151 1.000000
vt 0.339329 1.000000
vt 0.378151 0.000000
vt 0.339329 0.000000
vt 0.339329 1.000000
vt 0.303093 1.000000
vt 0.339329 0.000000
vt 0.303093 0.000000
vt 0.303093 1.000000
vt 0.255392 1.000000
vt 0.303093 0.000000
vt 0.255392 0.000000
vt 0.255392 1.000000
vt 0.212132 1.000000
vt 0.255392 0.000000
vt 0.212132 0.000000
vt 0.212132 1.000000
vt 0.123885 1.000000
vt 0.212132 0.000000
vt 0.123885 0.000000
vt 0.123885 1.000000
vt 0.069525 1.000000
vt 0.123885 0.000000
vt 0.069525 0.000000
vt 0.069525 1.000000
vt 0.000005 1.000000
vt 0.069525 0.000000
vt 0.000005 0.000000
vt 0.000005 1.000000
vt -0.000000 1.000000
vt 0.000005 0.000000
vt -0.000000 0.000000
vt 0.708571 0.089310
vt 0.599641 0.000000
vt 0.708575 0.286248
vt 0.599641 0.196941
vt 0.000000 0.196950
vt 0.042949 0.232161
vt 0.000000 0.244267
vt 0.718818 1.000000
vt 0.751197 0.945637
vt 0.817501 1.000000
vt 0.817501 0.357248
vt 1.000000 0.357239
vt 0.902239 0.277099
vt 1.000000 0.196950
vt 0.719753 0.277101
vt 0.817512 0.196950
vt 0.817501 0.000000
vt 0.569010 0.727248
vt 0.599618 0.644283
vt 0.325870 0.357254
vt 0.599630 0.357239
vt 0.599641 0.644277
vt 0.149471 0.286759
vt 0.697385 0.277086
vt 0.155220 0.277105
vt 0.708572 0.708758
vt 0.708571 0.267948
vt 0.708572 0.286251
vt 0.708578 0.267941
vt 0.670158 0.752375
vn 0.000000 0.000000 1.000000
vn 0.000000 0.000000 1.000000
vn 0.000000 0.000000 1.000000
vn 0.000000 0.000000 1.000000
vn 0.000000 0.000000 1.000000
vn 0.000000 0.000000 1.000000
vn 0.000000 0.000000 1.000000
vn 0.000000 0.000000 1.000000
vn 0.000000 0.000000 0.998312
vn 0.000000 0.000000 0.998312
vn 0.000000 0.000000 1.000000
vn 0.000000 0.000000 1.000000
vn 0.000000 0.000000 1.000000
vn 0.000000 0.000000 1.000000
vn 0.000000 0.000000 1.000000
vn 0.000000 0.000000 1.000000
vn 0.000000 0.000000 1.000000
vn 0.000000 0.000000 1.000000
vn 0.000000 0.000000 1.000000
vn 0.000000 0.000000 1.000000
vn 0.000000 0.000000 1.000000
vn 0.000000 0.000000 1.000000
vn 0.000000 0.000000 1.000000
vn 0.000000 0.000000 1.000000
vn 0.000000 0.000000 1.000000
vn 0.000000 0.000000 1.000000
vn 0.000000 0.000000 1.000000
vn 0.000000 0.000000 1.000000
vn 0.000000 0.000000 1.000000
vn 0.000000 0.000000 1.000000
vn -1.000000 0.000000 0.000000
vn -1.000000 0.000000 0.000000
vn -1.000000 0.000000 0.000000
vn -1.000000 0.000000 0.000000
vn -0.000019 -1.000000 0.000000
vn -0.000019 -1.000000 0.000000
vn -0.000019 -1.000000 0.000000
vn -0.000019 -1.000000 0.000000
vn -1.000000 0.000000 0.000000
vn -1.000000 0.000000 0.000000
vn -1.000000 0.000000 0.000000
vn -1.000000 0.000000 0.000000
vn -0.787249 0.613895 0.000000
vn -0.787249 0.613895 0.000000
vn -0.788579 0.614933 0.000000
vn -0.788579 0.614933 0.000000
vn 0.000000 1.000000 0.000000
vn 0.000000 1.000000 0.000000
vn 0.000000 1.000000 0.000000
vn 0.000000 1.000000 0.000000
vn 1.000000 0.000000 0.000000
vn 1.000000 0.000000 0.000000
vn 1.000000 0.000000 0.000000
vn 1.000000 0.000000 0.000000
vn 0.000062 1.000000 0.000000
vn 0.000062 1.000000 0.000000
vn 0.000062 1.000000 0.000000
vn 0.000062 1.000000 0.000000
vn 1.000000 0.000000 0.000000
vn 1.000000 0.000000 0.000000
vn 1.000000 0.000000 0.000000
vn 1.000000 0.000000 0.000000
vn 0.000000 -1.000000 0.000000
vn 0.000000 -1.000000 0.000000
vn 0.000000 -1.000000 0.000000
vn 0.000000 -1.000000 0.000000
vn 1.000000 -0.000046 0.000000
vn 1.000000 -0.000046 0.000000
vn 1.000000 -0.000046 0.000000
vn 1.000000 -0.000046 0.000000
vn 0.000000 -1.000000 0.000000
vn 0.000000 -1.000000 0.000000
vn 0.000000 -1.000000 0.000000
vn 0.000000 -1.000000 0.000000
vn 0.787771 -0.615968 0.000000
vn 0.787771 -0.615968 0.000000
vn 0.787771 -0.615968 0.000000
vn 0.787771 -0.615968 0.000000
vn 0.000069 1.000000 0.000000
vn 0.000069 1.000000 0.000000
vn 0.000069 1.000000 0.000000
vn 0.000069 1.000000 0.000000
vn -1.000000 0.000032 0.000000
vn -1.000000 0.000032 0.000000
vn -1.000000 0.000032 0.000000
vn -1.000000 0.000032 0.000000
vn -0.314097 -0.947613 0.000000
vn -0.314097 -0.947613 0.000000
vn -0.314097 -0.947613 0.000000
vn -0.314097 -0.947613 0.000000
vn 0.000000 0.000000 -1.000000
vn 0.000000 0.000000 -1.000000
vn 0.000000 0.000000 -1.000000
vn 0.000000 0.000000 -1.000000
vn 0.000000 0.000000 -1.000000
vn 0.000000 0.000000 -1.000000
vn 0.000000 0.000000 -1.000000
vn 0.000000 0.000000 -1.000000
vn 0.000000 0.000000 -0.998312
vn 0.000000 0.000000 -0.998312
vn 0.000000 0.000000 -1.000000
vn 0.000000 0.000000 -1.000000
vn 0.000000 0.000000 -1.000000
vn 0.000000 0.000000 -1.000000
vn 0.000000 0.000000 -1.000000
vn 0.000000 0.000000 -1.000000
vn 0.000000 0.000000 -1.000000
vn 0.000000 0.000000 -1.000000
vn 0.000000 0.000000 -1.000000
vn 0.000000 0.000000 -1.000000
vn 0.000000 0.000000 -1.000000
vn 0.000000 0.000000 -1.000000
vn 0.000000 0.000000 -1.000000
vn 0.000000 0.000000 -1.000000
vn 0.000000 0.000000 -1.000000
vn 0.000000 0.000000 -1.000000
vn 0.000000 0.000000 -1.000000
vn 0.000000 0.000000 -1.000000
vn 0.000000 0.000000 -1.000000
vn 0.000000 0.000000 -1.000000
usemtl 4 フロント膨張マテリアル
f 3/3/3 4/4/4 27/27/27
f 24/24/24 25/25/25 4/4/4
f 7/7/7 5/5/5 6/6/6
f 23/23/23 18/18/18 8/8/8
f 10/10/10 8/8/8 9/9/9
f 26/26/26 28/28/28 11/11/11
f 15/15/15 13/13/13 11/11/11
f 14/14/14 12/12/12 13/13/13
f 15/15/15 16/16/16 13/13/13
f 17/17/17 16/16/16 1/1/1
f 2/2/2 17/17/17 1/1/1
f 23/23/23 20/20/20 18/18/18
f 21/21/21 20/20/20 24/24/24
f 22/22/22 21/21/21 26/26/26
f 18/18/18 19/19/19 30/30/30
f 27/27/27 4/4/4 29/29/29
f 29/29/29 4/4/4 1/1/1
f 2/2/2 1/1/1 4/4/4
f 4/4/4 3/3/3 24/24/24
f 25/25/25 6/6/6 4/4/4
f 28/28/28 24/24/24 3/3/3
f 5/5/5 4/4/4 6/6/6
f 23/23/23 8/8/8 6/6/6
f 8/8/8 18/18/18 9/9/9
f 25/25/25 23/23/23 6/6/6
f 7/7/7 6/6/6 8/8/8
f 30/30/30 9/9/9 18/18/18
f 26/26/26 11/11/11 9/9/9
f 28/28/28 3/3/3 11/11/11
f 30/30/30 26/26/26 9/9/9
f 10/10/10 9/9/9 11/11/11
f 27/27/27 11/11/11 3/3/3
f 11/11/11 27/27/27 15/15/15
f 12/12/12 11/11/11 13/13/13
f 29/29/29 15/15/15 27/27/27
f 14/14/14 13/13/13 16/16/16
f 1/1/1 16/16/16 29/29/29
f 15/15/15 29/29/29 16/16/16
f 19/19/19 18/18/18 20/20/20
f 24/24/24 20/20/20 25/25/25
f 23/23/23 25/25/25 20/20/20
f 26/26/26 21/21/21 28/28/28
f 24/24/24 28/28/28 21/21/21
f 19/19/19 22/22/22 30/30/30
f 26/26/26 30/30/30 22/22/22
usemtl 4 フロントベベルマテリアル
f 1/1/1 1/1/1 1/1/1
usemtl 4 押し出しマテリアル
f 33/33/33 31/31/31 32/32/32
f 33/33/33 32/32/32 34/34/34
f 37/37/37 35/35/35 36/36/36
f 37/37/37 36/36/36 38/38/38
f 41/41/41 39/39/39 40/40/40
f 41/41/41 40/40/40 42/42/42
f 45/45/45 43/43/43 44/44/44
f 45/45/45 44/44/44 46/46/46
f 49/49/49 47/47/47 48/48/48
f 49/49/49 48/48/48 50/50/50
f 53/53/53 51/51/51 52/52/52
f 53/53/53 52/52/52 54/54/54
f 57/57/57 55/55/55 56/56/56
f 57/57/57 56/56/56 58/58/58
f 61/61/61 59/59/59 60/60/60
f 61/61/61 60/60/60 62/62/62
f 65/65/65 63/63/63 64/64/64
f 65/65/65 64/64/64 66/66/66
f 69/69/69 67/67/67 68/68/68
f 69/69/69 68/68/68 70/70/70
f 73/73/73 71/71/71 72/72/72
f 73/73/73 72/72/72 74/74/74
f 77/77/77 75/75/75 76/76/76
f 77/77/77 76/76/76 78/78/78
f 81/81/81 79/79/79 80/80/80
f 81/81/81 80/80/80 82/82/82
f 85/85/85 83/83/83 84/84/84
f 85/85/85 84/84/84 86/86/86
f 89/89/89 87/87/87 88/88/88
f 89/89/89 88/88/88 90/90/90
usemtl 4 バックベベルマテリアル
f 1/1/1 1/1/1 1/1/1
usemtl 4 バック膨張マテリアル
f 94/94/94 93/93/93 117/117/117
f 115/115/115 114/114/114 94/94/94
f 95/95/95 97/97/97 96/96/96
f 108/108/108 113/113/113 98/98/98
f 98/98/98 100/100/100 99/99/99
f 118/118/118 116/116/116 101/101/101
f 103/103/103 105/105/105 101/101/101
f 102/102/102 104/104/104 103/103/103
f 106/106/106 105/105/105 103/103/103
f 106/106/106 107/107/107 91/91/91
f 107/107/107 92/92/92 91/91/91
f 110/110/110 113/113/113 108/108/108
f 110/110/110 111/111/111 114/114/114
f 111/111/111 112/112/112 116/116/116
f 109/109/109 108/108/108 120/120/120
f 94/94/94 117/117/117 119/119/119
f 94/94/94 119/119/119 91/91/91
f 91/91/91 92/92/92 94/94/94
f 93/93/93 94/94/94 114/114/114
f 96/96/96 115/115/115 94/94/94
f 114/114/114 118/118/118 93/93/93
f 94/94/94 95/95/95 96/96/96
f 98/98/98 113/113/113 96/96/96
f 108/108/108 98/98/98 99/99/99
f 113/113/113 115/115/115 96/96/96
f 96/96/96 97/97/97 98/98/98
f 99/99/99 120/120/120 108/108/108
f 101/101/101 116/116/116 99/99/99
f 93/93/93 118/118/118 101/101/101
f 116/116/116 120/120/120 99/99/99
f 99/99/99 100/100/100 101/101/101
f 101/101/101 117/117/117 93/93/93
f 117/117/117 101/101/101 105/105/105
f 101/101/101 102/102/102 103/103/103
f 105/105/105 119/119/119 117/117/117
f 103/103/103 104/104/104 106/106/106
f 106/106/106 91/91/91 119/119/119
f 119/119/119 105/105/105 106/106/106
f 108/108/108 109/109/109 110/110/110
f 110/110/110 114/114/114 115/115/115
f 115/115/115 113/113/113 110/110/110
f 111/111/111 116/116/116 118/118/118
f 118/118/118 114/114/114 111/111/111
f 112/112/112 109/109/109 120/120/120
f 120/120/120 116/116/116 112/112/112
